<svg xmlns="http://www.w3.org/2000/svg" viewBox="0 0 750 500"><g id="freepik--background-complete--inject-2"><g><g><path d="M557.58,429.01c-.02-.52-1.78-52.42-10.22-60.62-8.21-7.98-17.63-.3-18.03,.03l-.85-1.01c.11-.09,10.74-8.77,19.8,.03,8.82,8.58,10.55,59.37,10.61,61.53l-1.32,.04Z" style="fill:#e0e0e0;"></path><path d="M558.31,439.21c-.06-.62-5.77-62.3,16.76-88.15l1,.87c-22.15,25.42-16.5,86.54-16.44,87.15l-1.31,.13Z" style="fill:#e0e0e0;"></path><path d="M557.48,432.68l-1.32-.09c.05-.7,4.41-70.12-12.11-85.32l.89-.97c16.99,15.62,12.73,83.49,12.54,86.38Z" style="fill:#e0e0e0;"></path><path d="M559.63,432.64h-1.32c.02-1.92,.54-46.9,13.32-54.22,2.84-1.63,5.62-1.9,8.27-.81,7.73,3.2,11.55,16.94,11.71,17.53l-1.27,.35c-.04-.14-3.82-13.71-10.94-16.66-2.25-.93-4.64-.68-7.1,.73-12.12,6.95-12.65,52.62-12.66,53.08Z" style="fill:#e0e0e0;"></path><path d="M554.65,432.68l-1.32-.07c.02-.35,1.93-35.54-7.57-47.94-2.3-3-4.8-4.44-7.44-4.25-6.22,.43-11.44,9.54-11.49,9.63l-1.15-.65c.23-.4,5.62-9.81,12.55-10.3,3.1-.22,5.99,1.39,8.58,4.77,9.79,12.79,7.92,47.35,7.84,48.82Z" style="fill:#e0e0e0;"></path><path d="M556.73,437.46c-.26-3.41-6.21-83.76,4.26-97.92l1.06,.78c-10.18,13.77-4.07,96.2-4,97.03l-1.32,.1Z" style="fill:#e0e0e0;"></path></g><path d="M582.74,385.76s-6.28,2.32-4.41,7.78c1.87,5.47,21.72,14.46,21.72,14.46,0,0,8.32-7.62,.68-20.02-7.64-12.4-17.82-6.13-17.99-2.22Z" style="fill:#ebebeb;"></path><path d="M555.44,375.35s6.69-.28,7.07,5.48c.38,5.76-14.49,21.71-14.49,21.71,0,0-10.61-3.84-8.33-18.22,2.28-14.38,14.09-12.52,15.75-8.97Z" style="fill:#ebebeb;"></path><path d="M549.78,347.77s4.46-.48,4.1-3.19c-.36-2.72-17.33-9.7-27.35,1.6,0,0,6.41,11.01,15.68,11.16,9.27,.14,7.56-9.56,7.56-9.56Z" style="fill:#ebebeb;"></path><path d="M558.09,341.17s-4.04,1.95-5.17-.54c-1.13-2.49,9.58-17.4,24.05-13.11,0,0,.38,12.74-7.41,17.76-7.79,5.02-11.48-4.11-11.48-4.11Z" style="fill:#ebebeb;"></path><path d="M536.98,383.56s3.08-2.48-.24-3.7c-3.32-1.21-19.61-.87-19.78,15.27,0,0,18.98,3.15,21.33-2.99,2.35-6.15-1.3-8.58-1.3-8.58Z" style="fill:#ebebeb;"></path><path d="M575.67,347.36s-3.08-2.48,.24-3.7c3.32-1.21,19.61-.87,19.78,15.27,0,0-18.98,3.15-21.33-2.99-2.35-6.15,1.3-8.58,1.3-8.58Z" style="fill:#ebebeb;"></path><path d="M565.64,360.36s-.27-3.02,2.17-1.84c2.44,1.18,10.93,10.35,2.13,19.04,0,0-11.85-8.78-9.72-13.35,2.14-4.57,5.42-3.86,5.42-3.86Z" style="fill:#ebebeb;"></path><path d="M534.23,364.67s1.84-2.41-.85-2.71c-2.69-.3-14.77,2.92-11.95,14.98,0,0,14.71-1.11,15.34-6.11,.63-5.01-2.53-6.15-2.53-6.15Z" style="fill:#ebebeb;"></path><polygon points="572.79 445.54 539.4 445.54 535.74 417.18 576.34 417.18 572.79 445.54" style="fill:#f0f0f0;"></polygon><rect x="532.99" y="413.69" width="46.21" height="6.99" style="fill:#e6e6e6;"></rect></g><g><rect x="349.49" y="55.68" width="66.82" height="117.61" style="fill:#e6e6e6;"></rect><rect x="334.54" y="55.68" width="78.5" height="117.61" style="fill:#f0f0f0;"></rect><rect x="346.47" y="66.12" width="54.6" height="96.72" style="fill:#fff;"></rect><rect x="363.25" y="86.49" width="21.78" height="56.52" style="fill:#f0f0f0;"></rect></g><g><g><g><g><path d="M673.73,314.64h-180.75c-3.23,0-5.86-2.63-5.86-5.86V45.5c0-3.23,2.63-5.86,5.86-5.86h180.75c3.23,0,5.86,2.63,5.86,5.86V308.78c0,3.23-2.63,5.86-5.86,5.86ZM492.99,39.89c-3.09,0-5.61,2.52-5.61,5.61V308.78c0,3.09,2.52,5.61,5.61,5.61h180.75c3.09,0,5.61-2.52,5.61-5.61V45.5c0-3.09-2.52-5.61-5.61-5.61h-180.75Z" style="fill:#e0e0e0;"></path><path d="M465.31,314.64h-180.75c-3.23,0-5.86-2.63-5.86-5.86V45.5c0-3.23,2.63-5.86,5.86-5.86h180.75c3.23,0,5.86,2.63,5.86,5.86V308.78c0,3.23-2.63,5.86-5.86,5.86ZM284.56,39.89c-3.09,0-5.61,2.52-5.61,5.61V308.78c0,3.09,2.52,5.61,5.61,5.61h180.75c3.09,0,5.61-2.52,5.61-5.61V45.5c0-3.09-2.52-5.61-5.61-5.61h-180.75Z" style="fill:#e0e0e0;"></path></g><path d="M257.01,314.64H76.27c-3.23,0-5.86-2.63-5.86-5.86V45.5c0-3.23,2.63-5.86,5.86-5.86h180.75c3.23,0,5.86,2.63,5.86,5.86V308.78c0,3.23-2.63,5.86-5.86,5.86ZM76.27,39.89c-3.09,0-5.61,2.52-5.61,5.61V308.78c0,3.09,2.52,5.61,5.61,5.61h180.75c3.09,0,5.61-2.52,5.61-5.61V45.5c0-3.09-2.52-5.61-5.61-5.61H76.27Z" style="fill:#e0e0e0;"></path></g><rect y="375.71" width="750" height=".12" style="fill:#e0e0e0;"></rect></g><g><rect x="653.63" y="405.08" width="55.73" height=".42" style="fill:#ebebeb;"></rect><rect x="495.04" y="409.65" width="14.63" height=".42" style="fill:#ebebeb;"></rect><rect x="40.64" y="392.29" width="72.67" height=".42" style="fill:#ebebeb;"></rect><rect x="128.3" y="392.29" width="10.66" height=".42" style="fill:#ebebeb;"></rect><rect x="173.59" y="399.39" width="157.61" height=".42" style="fill:#ebebeb;"></rect></g></g><g><rect x="96.99" y="53.84" width="142.9" height="158.13" style="fill:#e0e0e0;"></rect><rect x="103.28" y="60.1" width="130.7" height="145.92" style="fill:#f5f5f5;"></rect><polygon points="140.22 60.1 103.28 198.44 103.28 123.55 120.18 60.1 140.22 60.1" style="fill:#fff;"></polygon><polygon points="156.73 60.1 117.77 206.03 110.43 206.03 149.38 60.1 156.73 60.1" style="fill:#fff;"></polygon><polygon points="233.98 99.9 233.98 174.8 225.71 206.03 205.67 206.03 233.98 99.9" style="fill:#fff;"></polygon><rect x="165.91" y="53.84" width="5.08" height="158.13" style="fill:#e0e0e0;"></rect><rect x="99.48" y="85.93" width="137.68" height="5.08" style="fill:#e0e0e0;"></rect></g><g><rect x="507.22" y="53.84" width="142.9" height="158.13" style="fill:#e0e0e0;"></rect><rect x="513.51" y="60.1" width="130.7" height="145.92" style="fill:#f5f5f5;"></rect><polygon points="550.44 60.1 513.51 198.44 513.51 123.55 530.41 60.1 550.44 60.1" style="fill:#fff;"></polygon><polygon points="566.95 60.1 528 206.03 520.65 206.03 559.61 60.1 566.95 60.1" style="fill:#fff;"></polygon><polygon points="644.2 99.9 644.2 174.8 635.93 206.03 615.89 206.03 644.2 99.9" style="fill:#fff;"></polygon><rect x="576.13" y="53.84" width="5.08" height="158.13" style="fill:#e0e0e0;"></rect><rect x="509.7" y="85.93" width="137.68" height="5.08" style="fill:#e0e0e0;"></rect></g></g><g id="freepik--Shadow--inject-2"><path d="M716.1,448.39c0,3.39-156.04,6.13-348.52,6.13s-348.52-2.75-348.52-6.13,156.04-6.13,348.52-6.13,348.52,2.75,348.52,6.13Z" style="fill:#f5f5f5;"></path></g><g id="freepik--Board--inject-2"><g id="freepik--freepik--Board--inject-2--inject-2"><polygon points="668.21 437.77 668.21 296.07 655.65 296.07 655.65 437.77 647.66 440.52 647.66 444.79 676.2 444.79 676.2 440.52 668.21 437.77" style="fill:#263238;"></polygon><polygon points="508.38 296.07 495.82 296.07 495.82 437.77 487.83 440.52 487.83 444.79 516.37 444.79 516.37 440.52 508.38 437.77 508.38 296.07" style="fill:#263238;"></polygon><g style="opacity:.2;"><polygon points="668.21 312.74 655.65 312.74 655.65 437.77 647.66 440.52 647.66 444.79 676.2 444.79 676.2 440.52 668.21 437.77 668.21 312.74" style="fill:#fff;"></polygon><polygon points="508.38 312.74 495.82 312.74 495.82 437.77 487.83 440.52 487.83 444.79 516.37 444.79 516.37 440.52 508.38 437.77 508.38 312.74" style="fill:#fff;"></polygon></g><rect x="457" y="97.42" width="250.03" height="203.22" style="fill:#263238;"></rect><rect x="462.56" y="103.06" width="238.91" height="191.82" style="fill:#407BFF;"></rect><path d="M574.06,172.7h-85.02v-53.35l85.02,53.35Zm-84.02-1h80.54l-80.54-50.54v50.54Z" style="fill:#263238;"></path><polygon points="494.09 172.34 493.3 172.34 493.3 168.49 489.45 168.49 489.45 167.69 494.09 167.69 494.09 172.34" style="fill:#263238;"></polygon><g style="isolation:isolate;"><path d="M531.66,139.04h-.89v-7.78h.96v2.78c.4-.51,.92-.76,1.54-.76,.35,0,.67,.07,.98,.21,.31,.14,.56,.34,.76,.59,.2,.25,.36,.56,.47,.91,.11,.36,.17,.74,.17,1.15,0,.97-.24,1.71-.72,2.24-.48,.53-1.05,.79-1.72,.79s-1.19-.28-1.57-.83v.71Zm-.01-2.86c0,.68,.09,1.16,.28,1.46,.3,.49,.71,.74,1.22,.74,.42,0,.78-.18,1.08-.54,.3-.36,.46-.9,.46-1.62s-.15-1.28-.44-1.63c-.29-.35-.64-.53-1.06-.53s-.78,.18-1.08,.54c-.3,.36-.46,.89-.46,1.57Z" style="fill:#263238;"></path></g><g style="isolation:isolate;"><path d="M491.5,217.49h-.89v-7.78h.96v2.78c.4-.51,.92-.76,1.54-.76,.35,0,.67,.07,.98,.21,.31,.14,.56,.34,.76,.59,.2,.25,.36,.56,.47,.91,.11,.36,.17,.74,.17,1.15,0,.97-.24,1.71-.72,2.24-.48,.53-1.05,.79-1.72,.79s-1.19-.28-1.57-.83v.71Zm-.01-2.86c0,.68,.09,1.16,.28,1.46,.3,.49,.71,.74,1.22,.74,.42,0,.78-.18,1.08-.54,.3-.36,.46-.9,.46-1.62s-.15-1.28-.44-1.63c-.29-.35-.64-.53-1.06-.53s-.78,.18-1.08,.54c-.3,.36-.46,.89-.46,1.57Z" style="fill:#263238;"></path></g><g style="isolation:isolate;"><path d="M523.06,180.74l.94,.12c-.1,.65-.37,1.15-.79,1.52-.42,.37-.94,.55-1.56,.55-.77,0-1.39-.25-1.86-.76-.47-.5-.7-1.23-.7-2.17,0-.61,.1-1.14,.3-1.6,.2-.46,.51-.8,.92-1.03,.41-.23,.86-.34,1.35-.34,.61,0,1.11,.15,1.5,.46,.39,.31,.64,.75,.75,1.32l-.93,.14c-.09-.38-.25-.66-.47-.85-.22-.19-.5-.29-.81-.29-.48,0-.87,.17-1.17,.52-.3,.35-.45,.89-.45,1.64s.15,1.31,.44,1.65c.29,.34,.67,.51,1.14,.51,.37,0,.69-.11,.94-.34,.25-.23,.41-.58,.48-1.06Z" style="fill:#263238;"></path></g><g style="isolation:isolate;"><path d="M494.3,231.38l.94,.12c-.1,.65-.37,1.15-.79,1.52-.42,.37-.94,.55-1.56,.55-.77,0-1.39-.25-1.86-.76-.47-.5-.7-1.23-.7-2.17,0-.61,.1-1.14,.3-1.6,.2-.46,.51-.8,.92-1.03,.41-.23,.86-.34,1.35-.34,.61,0,1.11,.15,1.5,.46,.39,.31,.64,.75,.75,1.32l-.93,.14c-.09-.38-.25-.66-.47-.85-.22-.19-.5-.29-.81-.29-.48,0-.87,.17-1.17,.52-.3,.35-.45,.89-.45,1.64s.15,1.31,.44,1.65c.29,.34,.67,.51,1.14,.51,.37,0,.69-.11,.94-.34,.25-.23,.41-.58,.48-1.06Z" style="fill:#263238;"></path></g><g style="isolation:isolate;"><path d="M484.73,150.73c-.35,.3-.69,.51-1.02,.64-.33,.12-.68,.19-1.05,.19-.62,0-1.1-.15-1.43-.45-.33-.3-.5-.69-.5-1.16,0-.28,.06-.53,.19-.76,.13-.23,.29-.41,.49-.55,.2-.14,.43-.24,.69-.31,.19-.05,.47-.1,.85-.14,.77-.09,1.34-.2,1.7-.33,0-.13,0-.21,0-.25,0-.39-.09-.66-.27-.82-.24-.22-.61-.32-1.09-.32-.45,0-.78,.08-1,.24-.21,.16-.37,.44-.47,.84l-.93-.13c.08-.4,.22-.72,.42-.97,.19-.25,.48-.43,.84-.57,.37-.13,.79-.2,1.28-.2s.87,.06,1.17,.17c.3,.11,.52,.26,.66,.43,.14,.17,.24,.39,.3,.65,.03,.16,.05,.46,.05,.88v1.27c0,.89,.02,1.45,.06,1.68,.04,.24,.12,.46,.24,.68h-1c-.1-.2-.16-.43-.19-.7Zm-.08-2.13c-.35,.14-.87,.26-1.56,.36-.39,.06-.67,.12-.83,.19-.16,.07-.29,.17-.38,.31-.09,.14-.13,.29-.13,.45,0,.25,.1,.47,.29,.64,.19,.17,.47,.25,.85,.25s.7-.08,.98-.24c.29-.16,.5-.38,.63-.66,.1-.22,.15-.53,.15-.96v-.35Z" style="fill:#263238;"></path></g><g style="isolation:isolate;"><path d="M494.3,200.83c-.35,.3-.69,.51-1.02,.64-.33,.12-.68,.19-1.05,.19-.62,0-1.1-.15-1.43-.45-.33-.3-.5-.69-.5-1.16,0-.28,.06-.53,.19-.76,.13-.23,.29-.41,.49-.55,.2-.14,.43-.24,.69-.31,.19-.05,.47-.1,.85-.14,.77-.09,1.34-.2,1.7-.33,0-.13,0-.21,0-.25,0-.39-.09-.66-.27-.82-.24-.22-.61-.32-1.09-.32-.45,0-.78,.08-1,.24-.21,.16-.37,.44-.47,.84l-.93-.13c.08-.4,.22-.72,.42-.97,.19-.25,.48-.43,.84-.57,.37-.13,.79-.2,1.28-.2s.87,.06,1.17,.17c.3,.11,.52,.26,.66,.43,.14,.17,.24,.39,.3,.65,.03,.16,.05,.46,.05,.88v1.27c0,.89,.02,1.45,.06,1.68,.04,.24,.12,.46,.24,.68h-1c-.1-.2-.16-.43-.19-.7Zm-.08-2.13c-.35,.14-.87,.26-1.56,.36-.39,.06-.67,.12-.83,.19-.16,.07-.29,.17-.38,.31-.09,.14-.13,.29-.13,.45,0,.25,.1,.47,.29,.64,.19,.17,.47,.25,.85,.25s.7-.08,.98-.24c.29-.16,.5-.38,.63-.66,.1-.22,.15-.53,.15-.96v-.35Z" style="fill:#263238;"></path></g><rect x="591.72" y="120.32" width="45.67" height="1" style="fill:#263238;"></rect><rect x="591.72" y="129.46" width="25.12" height="1" style="fill:#263238;"></rect><rect x="591.72" y="136.31" width="35.39" height="1" style="fill:#263238;"></rect><rect x="591.72" y="144.3" width="29.68" height="1" style="fill:#263238;"></rect><rect x="591.72" y="153.43" width="44.53" height="1" style="fill:#263238;"></rect><rect x="591.72" y="161.42" width="43.38" height="1" style="fill:#263238;"></rect><rect x="591.72" y="169.42" width="29.68" height="1" style="fill:#263238;"></rect><rect x="643.1" y="239.06" width="30.83" height="1" style="fill:#263238;"></rect><rect x="643.1" y="248.19" width="17.12" height="1" style="fill:#263238;"></rect><rect x="643.1" y="255.04" width="23.98" height="1" style="fill:#263238;"></rect><rect x="643.1" y="263.03" width="20.55" height="1" style="fill:#263238;"></rect><rect x="486.69" y="253.9" width="30.83" height="1" style="fill:#263238;"></rect><rect x="486.69" y="263.03" width="17.12" height="1" style="fill:#263238;"></rect><rect x="486.69" y="269.88" width="23.97" height="1" style="fill:#263238;"></rect><rect x="486.69" y="277.88" width="20.55" height="1" style="fill:#263238;"></rect><rect x="652.23" y="136.31" width="29.68" height="1" style="fill:#263238;"></rect><rect x="652.23" y="144.3" width="29.68" height="1" style="fill:#263238;"></rect><rect x="652.23" y="152.29" width="20.55" height="1" style="fill:#263238;"></rect><rect x="564.32" y="253.9" width="29.68" height="1" style="fill:#263238;"></rect><rect x="564.32" y="261.89" width="29.68" height="1" style="fill:#263238;"></rect><rect x="564.32" y="269.88" width="20.55" height="1" style="fill:#263238;"></rect><rect x="508.38" y="201.38" width="66.22" height="1" style="fill:#263238;"></rect><rect x="508.38" y="216.22" width="66.22" height="1" style="fill:#263238;"></rect><rect x="508.38" y="231.07" width="66.22" height="1" style="fill:#263238;"></rect><path d="M618.52,240.02c-11.71,0-21.23-9.52-21.23-21.23s9.52-21.23,21.23-21.23,21.23,9.52,21.23,21.23-9.52,21.23-21.23,21.23Zm0-41.67c-11.27,0-20.44,9.17-20.44,20.44s9.17,20.44,20.44,20.44,20.44-9.17,20.44-20.44-9.17-20.44-20.44-20.44Z" style="fill:#263238;"></path><polygon points="639.67 219.51 618.05 219.51 618.05 197.89 619.05 197.89 619.05 218.51 639.67 218.51 639.67 219.51" style="fill:#263238;"></polygon><rect x="462.56" y="103.06" width="238.91" height="191.82" style="fill:#fff; isolation:isolate; opacity:.6;"></rect></g></g><g id="freepik--Speech_Bubble_2--inject-2"><g><g><path d="M608.86,110.67h-30.7c-2.92,0-5.29,2.37-5.29,5.29v22.4c0,2.92,2.37,5.29,5.29,5.29h22.78l7.37,7.37v-7.37h.55c2.92,0,5.29-2.37,5.29-5.29v-22.4c0-2.92-2.37-5.29-5.29-5.29Z" style="fill:#407BFF;"></path><g><path d="M581.01,127.15c0,1.54,1.24,2.78,2.78,2.78s2.78-1.25,2.78-2.78-1.24-2.78-2.78-2.78-2.78,1.24-2.78,2.78Z" style="fill:#fff;"></path><path d="M590.55,127.15c0,1.54,1.24,2.78,2.78,2.78s2.78-1.25,2.78-2.78-1.24-2.78-2.78-2.78-2.78,1.24-2.78,2.78Z" style="fill:#fff;"></path><path d="M600.09,127.15c0,1.54,1.24,2.78,2.78,2.78s2.78-1.25,2.78-2.78-1.24-2.78-2.78-2.78-2.78,1.24-2.78,2.78Z" style="fill:#fff;"></path></g></g><path d="M583.01,109.21h17.01c.48,0,.48-.75,0-.75h-17.01c-.48,0-.48,.75,0,.75h0Z" style="fill:#407BFF;"></path><path d="M602.06,109.16h1.16c.2,0,.38-.17,.38-.38s-.16-.38-.38-.38h-1.16c-.2,0-.38,.17-.38,.38s.16,.38,.38,.38h0Z" style="fill:#407BFF;"></path></g></g><g id="freepik--Speech_Bubble_1--inject-2"><g><g><path d="M249.66,119.11c-5.69-9.79-2.37-22.35,7.43-28.04,9.79-5.69,22.35-2.36,28.04,7.43,4.39,7.56,3.39,16.75-1.79,23.18l1,6.08-6.36-1.4c-.1,.06-.19,.13-.29,.19-9.79,5.69-22.35,2.36-28.04-7.43Z" style="fill:#407BFF;"></path><path d="M244.39,108.72c-.13,0-.24-.1-.25-.23-.48-6.71,2.69-13.64,8.08-17.66,.11-.08,.27-.06,.35,.05,.08,.11,.06,.27-.05,.35-5.26,3.92-8.35,10.68-7.88,17.22,0,.14-.09,.26-.23,.27h-.02Z" style="fill:#407BFF;"></path><path d="M245.33,114.73c-.1,0-.19-.06-.23-.15-.42-.96-.64-2.02-.64-3.07,0-.14,.11-.25,.25-.25h0c.14,0,.25,.11,.25,.25,0,.98,.2,1.97,.59,2.87,.06,.13,0,.27-.13,.33-.03,.01-.07,.02-.1,.02Z" style="fill:#407BFF;"></path></g><path d="M267.39,119.55c-.77,0-1.41-.25-1.93-.75-.52-.5-.78-1.1-.78-1.82s.25-1.31,.76-1.79c.51-.48,1.16-.72,1.95-.72s1.44,.24,1.95,.72c.51,.48,.76,1.08,.76,1.79s-.26,1.32-.78,1.82c-.52,.5-1.16,.75-1.93,.75Zm1.75-7.08h-3.5l-.87-12.89h5.25l-.87,12.89Z" style="fill:#fff;"></path></g></g><g id="freepik--Character_3--inject-2"><g><g><path d="M625.22,256.14s-17.07,64-20.34,89.83c-4.27,33.7-15.76,82.25-15.76,82.25l7.39,.2s23.06-40.7,27.83-78.4c19.55-38.52,21.12-85.96,21.12-85.96l-20.24-7.93Z" style="fill:#e9b376;"></path><path d="M578.59,444.37c1.05-.64,2.21-1.09,3.43-1.33h0s3.91-2.98,6.81-12.9l4.74-.62c1.64-.19,3.24,.62,3.99,2.04,.11,.19,.18,.4,.22,.62,.1,1.09,.14,2.19,.1,3.28-.19,3.74-.61,7.46-1.25,11.16l-.84-.1,.51-7c.15-2.38-2.05,.18-2.9,2.68-.85,2.5-2.31,5.07-7.7,4.6-6.3-.59-8.88-1.12-7.12-2.43Z" style="fill:#263238;"></path><path d="M589.33,427.58s-4.23,12.71-7.32,15.47c0,0,4.94,2.02,8.87-4.46,5.09-8.36,6.9-6.4,6.9-6.4-.31-1.29-.74-2.54-1.28-3.76-1.28-2.35-7.17-.85-7.17-.85Z" style="fill:#e9b376;"></path></g><g><path d="M637.97,255.14s-7.2,65.49-4.85,91.42c3.05,33.82,5.27,84.03,5.27,84.03l7.21,.31s15.44-68.02,8.78-84.04c10.86-41.59,5.18-88,5.18-88l-21.58-3.71Z" style="fill:#e9b376;"></path><path d="M627.18,445.23c1.07-.62,2.24-1.04,3.47-1.25h0s4-2.86,7.16-12.71l4.76-.52c1.66-.15,3.23,.72,3.93,2.18,.1,.2,.17,.4,.2,.62,.07,1.11,.07,2.23,0,3.34-.29,3.72-.81,7.42-1.56,11.08l-.84-.12,.7-6.99c.23-2.37-2.06,.14-2.97,2.6-.92,2.46-2.44,5.01-7.83,4.41-6.26-.78-8.82-1.37-7.03-2.64Z" style="fill:#263238;"></path><path d="M639.12,427.74s-1.69,4.47-3.95,9.37c-1.03,2.54-2.57,4.86-4.52,6.84,0,0,3.93,1.23,6.05-1.14,2.11-2.37,5.74-10.89,9.81-9.95-.22-.7-.52-1.37-.9-1.99-.61-.94-6.47-3.11-6.47-3.11Z" style="fill:#e9b376;"></path></g><g><path d="M559.21,180.74s-3.18-7.08-4.63-7.56c-1.45-.48-2.72-.15-2.72-.15,0,0-9.34-7.37-10.23-5.89-.48,.8,1.52,2.99,5.98,6.41,0,0-2.93,.65-2.03,2.43,0,0-2.18,.66-1.36,2.85,0,0-1.19,1.67-.16,2.98,1.03,1.31,6.17,5.25,9.34,6.16,.96,.28,2.61,.85,3.43,.22,0,0,8.37,5.42,8.57,5.68l4.5-8.82-10.68-4.32Z" style="fill:#e9b376;"></path><path d="M554.47,182.14s-.02,0-.03,0c-.99-.13-1.91-.86-2.4-1.9-.38-.8-.58-2.12-.59-3.11-1.2,.66-3.12,.84-4.09,.09-.65-.5-.78-1.06-.41-1.75,.18-.34,.71-.57,1.33-.82,.12-.05,.22-.09,.3-.13,.51-.23,1.01-.51,1.49-.77,.49-.27,1-.54,1.52-.78,.12-.06,.27,0,.33,.12,.06,.13,0,.27-.12,.33-.5,.23-1,.5-1.49,.77-.49,.27-1,.54-1.52,.78-.09,.04-.2,.09-.33,.14-.34,.13-.96,.38-1.07,.59-.26,.47-.19,.77,.27,1.12,.89,.69,2.95,.38,3.89-.36,.08-.06,.19-.07,.27-.02,.09,.05,.14,.14,.13,.24-.07,.93,.13,2.5,.53,3.35,.42,.89,1.19,1.51,2.01,1.62,.14,.02,.23,.14,.21,.28-.02,.13-.12,.22-.25,.22Z" style="fill:#263238; opacity:.3;"></path><path d="M547,183.56c-.2,0-.41-.04-.61-.12-.38-.15-.69-.4-.99-.65-.11-.09-.12-.25-.03-.35s.25-.12,.35-.03c.27,.22,.54,.45,.85,.57,.31,.12,.63,.11,.84-.02,.38-.24,.42-.84,.26-1.31-.17-.5-.49-.94-.91-1.25-.21-.09-.41-.2-.62-.34-.11-.07-.14-.21-.09-.32,.06-.11,.19-.17,.31-.12,.23,.09,.44,.2,.64,.34,.3,.13,.65,.23,1.03,.21,.58-.02,1.11-.31,1.34-.75,.25-.46,.12-1.09-.28-1.34-.12-.08-.15-.23-.07-.35,.08-.12,.23-.15,.35-.07,.61,.4,.81,1.31,.44,2-.32,.6-1.01,.99-1.77,1.02-.11,0-.22,0-.33-.01,.19,.25,.33,.53,.43,.83,.21,.63,.15,1.49-.47,1.89-.19,.12-.43,.19-.68,.19Z" style="fill:#263238; opacity:.3;"></path></g><path d="M622.85,179.02v20.34l-3.01,2.63c-6.13,2.96-19.9,8.82-23.83,8.68-7.34-.36-33.86-16.17-33.86-16.17l5.62-10.7s22.93,9.86,26.32,9.19,28.77-13.99,28.77-13.99Z" style="fill:#407BFF;"></path><g><path d="M660.46,136.88s3.58,.19,6.6,6.08-.76,12.43-1.51,15.56c-.76,3.13-4.52,5.9,1.69,10.63,6.21,4.73,9.94,9.76,4.9,14.88-5.04,5.12,.5,9.04-6.78,12.84-7.28,3.8-34.09-1.89-37.48-9.23-3.39-7.34,.7-12.93,.92-15.12s-4.31-4.44-5.44-11.62,4.66-8.71,5.44-11.99c.78-3.28-2.85-7.41,0-14.38,2.85-6.97,31.28-8.47,31.66,2.35Z" style="fill:#263238;"></path><path d="M660.46,136.88s3.58,.19,6.6,6.08-.76,12.43-1.51,15.56c-.76,3.13-4.52,5.9,1.69,10.63,6.21,4.73,9.94,9.76,4.9,14.88-5.04,5.12,.5,9.04-6.78,12.84-7.28,3.8-34.09-1.89-37.48-9.23-3.39-7.34,.7-12.93,.92-15.12s-4.31-4.44-5.44-11.62,4.66-8.71,5.44-11.99c.78-3.28-2.85-7.41,0-14.38,2.85-6.97,31.28-8.47,31.66,2.35Z" style="fill:#fff; opacity:.4;"></path></g><path d="M615.28,255.44c.67,.21,38.19,1.26,59.58-.29,0,0-6.76-43.57-18.06-48.32-6.01-2.52-26.94-1.08-34.65,9.52-6.79,9.34-6.87,28.41-6.87,39.08Z" style="fill:#407BFF;"></path><path d="M615.28,255.44c.67,.21,38.19,1.26,59.58-.29,0,0-6.76-43.57-18.06-48.32-6.01-2.52-26.94-1.08-34.65,9.52-6.79,9.34-6.87,28.41-6.87,39.08Z" style="isolation:isolate; opacity:.2;"></path><path d="M623.04,234.93l37.29,3.22c.36-9.24,1.69-18.42,3.97-27.39,.89-3.57,2.01-7.56,3.45-12.17,.77-2.46,1.62-5.11,2.56-7.91,.71-2.16,1.48-4.45,2.33-6.87-5.06-1.62-10.24-2.87-15.48-3.74-5.53-.98-11.13-1.57-16.75-1.76-7.25,0-15.59,.76-15.59,.76,0,0-1.19,.28-1.93,7.98-.67,7.18-1.33,21.62,.16,47.89Z" style="fill:#407BFF;"></path><path d="M623.22,240.52l37.29,3.07c.59-9.27,1.03-21.79,3.82-32.84,.89-3.57,2.01-7.56,3.45-12.17,.77-2.46,1.62-5.11,2.56-7.91,.71-2.16,1.48-4.45,2.33-6.87-5.06-1.62-10.24-2.87-15.48-3.74-5.53-.98-11.13-1.57-16.75-1.76-7.25,0-15.59,.76-15.59,.76,0,0-1.19,.28-1.93,7.98-.7,7.18-1.2,27.21,.31,53.48Z" style="fill:#263238;"></path><path d="M663.06,180.77s-6.84,47.27,11.8,74.39c0,0-8.34-49-2.21-71.39l-9.59-2.99Z" style="fill:#407BFF;"></path><path d="M630.55,178.26s-2.24,21.92-3.39,30.79c-2.82,21.82-11.88,46.96-11.88,46.96,0,0,1.43-60.39,7.55-77l7.72-.76Z" style="fill:#407BFF;"></path><g><path d="M623.22,240.52l-36,140.03s69.38,4.83,88.66,.88c0,0,4.73-98.85-15.39-137.85l-37.27-3.05Z" style="fill:#407BFF;"></path><path d="M623.22,240.52l-36,140.03s69.38,4.83,88.66,.88c0,0,4.73-98.85-15.39-137.85l-37.27-3.05Z" style="fill:#fff; isolation:isolate; opacity:.4;"></path></g><g><g><path d="M641.22,138.58s-7.59,13.69-7.95,17.94c-2.91,2.48-4.97-2.54-4.86-9.27,.09-5.51,2.96-11.45,7.72-13.59,6.68-3.01,5.1,4.91,5.1,4.91Z" style="fill:#263238;"></path><path d="M641.22,138.58s-7.59,13.69-7.95,17.94c-2.91,2.48-4.97-2.54-4.86-9.27,.09-5.51,2.96-11.45,7.72-13.59,6.68-3.01,5.1,4.91,5.1,4.91Z" style="fill:#fff; opacity:.4;"></path><g><g><path d="M642.65,177.33c1.27-1.27,.97-1.99,.73-3.84-.17-1.42-.63-2.9-1.17-4.34l1.9-2.06,9.87-9.27c-.47,6.41-.31,18.81,4.58,22.48l-13.49,7.4-7.56-9.4s3.27,.07,5.14-.97Z" style="fill:#e9b376;"></path><path d="M643.43,174.04c2.68-1.46,5.65-4.05,5.41-7.15-.11-1.3-.34-2.54-.62-3.34l-5.58,6.85c.4,1.15,.53,1.91,.78,3.64Z" style="opacity:.2;"></path><path d="M657.04,147.61c-1.25,9.75-1.57,13.9-6.81,18.84-7.87,7.44-19.47,4.42-21.13-5.35-1.49-8.8,.8-23.27,10.56-27.03,9.61-3.71,18.63,3.78,17.38,13.54Z" style="fill:#e9b376;"></path><path d="M643.77,151.05c0,.92-.53,1.7-1.18,1.74-.64,.04-1.16-.66-1.15-1.58,0-.92,.53-1.7,1.18-1.74,.64-.04,1.16,.66,1.15,1.58Z" style="fill:#263238;"></path><path d="M634.46,150.34c.04,.89-.44,1.68-1.07,1.76-.64,.08-1.19-.57-1.23-1.46-.04-.89,.44-1.68,1.07-1.76,.64-.08,1.19,.57,1.23,1.46Z" style="fill:#263238;"></path><path d="M646.38,147.9c-.13,0-.25-.03-.34-.13-1.44-1.46-3.16-1.05-3.18-1.05-.25,.06-.5-.09-.55-.35-.04-.26,.13-.52,.39-.59,.09-.02,2.25-.54,4.04,1.28,.18,.18,.17,.49-.02,.68-.09,.09-.21,.15-.33,.15Z" style="fill:#263238;"></path><path d="M646.38,147.9c-.13,0-.25-.03-.34-.13-1.44-1.46-3.16-1.05-3.18-1.05-.25,.06-.5-.09-.55-.35-.04-.26,.13-.52,.39-.59,.09-.02,2.25-.54,4.04,1.28,.18,.18,.17,.49-.02,.68-.09,.09-.21,.15-.33,.15Z" style="fill:#fff; opacity:.4;"></path><path d="M631.21,145.9c-.11-.04-.21-.11-.26-.23-.11-.23,0-.51,.24-.63,2.47-1.19,4.39-.16,4.48-.11,.23,.13,.3,.41,.15,.63-.14,.22-.45,.3-.68,.18-.07-.04-1.58-.82-3.54,.13-.13,.06-.27,.07-.39,.03Z" style="fill:#263238;"></path><path d="M631.21,145.9c-.11-.04-.21-.11-.26-.23-.11-.23,0-.51,.24-.63,2.47-1.19,4.39-.16,4.48-.11,.23,.13,.3,.41,.15,.63-.14,.22-.45,.3-.68,.18-.07-.04-1.58-.82-3.54,.13-.13,.06-.27,.07-.39,.03Z" style="fill:#fff; opacity:.4;"></path><path d="M659.71,155.69c-1.23,1.96-3.15,3.16-4.89,3.53-2.61,.56-3.8-3.66-2.82-6.22,.88-2.31,3.48-3.76,5.98-3.16,2.47,.59,3.13,3.61,1.73,5.85Z" style="fill:#e9b376;"></path><path d="M637.25,149.58s-1.66,3.61-3.47,5.83c-.32,.39-.15,.98,.31,1.17,1.19,.49,2.62,.14,2.62,.14l.54-7.13Z" style="fill:#d58745;"></path></g><path d="M642.82,149.44l-2.27-.42s1.31,1.62,2.27,.42Z" style="fill:#263238;"></path><path d="M633.56,148.89l-2.29-.29c1.11,1.22,2,.69,2.29,.29Z" style="fill:#263238;"></path></g><path d="M659.68,142.27c1.33,1.92-1.32,7.49-1.32,7.49,0,0-4.69-1.4-4.95,5.67-1.73,.29-3.67-6.31-3.39-12.95,.35-3.75,7.31-3.6,9.66-.21Z" style="fill:#263238;"></path><g style="opacity:.4;"><path d="M659.68,142.27c1.33,1.92-1.32,7.49-1.32,7.49,0,0-4.69-1.4-4.95,5.67-1.73,.29-3.67-6.31-3.39-12.95,.35-3.75,7.31-3.6,9.66-.21Z" style="fill:#fff;"></path></g><path d="M655.41,156.8c-.11,0-.22-.08-.24-.19-.03-.13,.05-.27,.19-.3,1.4-.33,2.03-1.05,2.32-1.6,.31-.6,.29-1.14,.18-1.43-.23-.58-.96-1.04-1.64-.77-.13,.05-.27-.01-.32-.14-.05-.13,.01-.27,.14-.32,.97-.37,1.96,.25,2.29,1.06,.16,.4,.19,1.1-.2,1.84-.33,.64-1.06,1.47-2.65,1.85-.02,0-.04,0-.06,0Z" style="fill:#263238; opacity:.2;"></path></g><g><path d="M635.81,159.91c.73,1.08,1.63,3.18,1.63,3.18,.21-.05,.41-.09,.61-.15,2.77-.71,3.82-1.95,4.14-3.12,.17-.64,.12-1.26,.02-1.74-.12-.57-.33-.94-.33-.94-1.24,1.25-3.77,2.11-5.14,2.52-.57,.17-.94,.26-.94,.26Z" style="fill:#263238;"></path><path d="M636.75,159.65l.51,.93c2.6-.68,4.35-1.5,4.96-2.5-.12-.57-.33-.94-.33-.94-1.24,1.25-3.77,2.11-5.14,2.52Z" style="fill:#fff;"></path><path d="M638.05,162.94c2.77-.71,3.82-1.95,4.14-3.12-.93,.28-2.03,.72-2.92,1.4-.68,.52-1.03,1.14-1.22,1.72Z" style="fill:#dc5753;"></path></g><path d="M631.41,136.83c2.07-4.3,10.5-8.3,20.2-4.15,8.76,3.74,11.29,16.49,4.96,16.97-6.33,.48-13.8-5.72-13.8-5.72l-11.36-7.11Z" style="fill:#263238;"></path></g><g><path d="M685.63,216.65l1.07,20.68c-4.28,.55-13.5-9.95-17.08-17.74-3.06-6.61-4.64-12.32-4.64-12.32l2.26-6.37,5.39-17.09s6.79,10.95,12.99,32.85" style="fill:#407BFF;"></path><path d="M720.15,168.95l-3.54-2.03-13.02,3.56-17.58-4.56-4.06,13.34s-.84,14.87,0,15.05c.84,.18,20.12,1.18,20.12,1.18l9.8-6.25,8.27-20.29Z" style="fill:#e0e0e0;"></path><polygon points="681.28 166.92 673.5 197.7 697.5 200.39 714.06 195.82 722.51 166.92 703.58 171.83 681.28 166.92" style="fill:#407BFF;"></polygon><polygon points="703.58 171.83 697.5 200.39 673.5 197.7 681.28 166.92 703.58 171.83" style="fill:#fff; isolation:isolate; opacity:.4;"></polygon><polygon points="703.58 171.83 697.5 200.39 714.06 195.82 722.51 166.92 703.58 171.83" style="fill:#fff; isolation:isolate; opacity:.2;"></polygon><path d="M684.56,236.29c5.93,5.05,11.05-3.14,15.12-26.9l-10.34-2.03-8.44,21.92,3.66,7.01Z" style="fill:#407BFF;"></path><path d="M671.01,222.27l-.61-15.97s3.47,8.6,.61,15.97Z" style="isolation:isolate; opacity:.2;"></path><polygon points="690.04 207.49 692.32 201.25 699.68 199.73 699.1 209.27 690.04 207.49" style="fill:#e9b376;"></polygon><g><g><path d="M690.57,200.23c.23,1.59,1.58,2.78,3.18,2.78,2.98,0,7.13-.41,7.93-1.68,1.14-1.81,.88-7.94,.18-8.37-.7-.43-1.21,1.06-1.21,1.06,0,0-.07-2.89-1.13-2.93-1.03-.04-1.34,2.13-1.34,2.13,0,0,.12-2.55-1.26-2.51-1.15,.03-1.43,2.71-1.43,2.71,0,0,.11-2.44-1.44-1.71-1.54,.73-3.47,8.52-3.47,8.52h0Z" style="fill:#e9b376;"></path><path d="M695.62,193.42h0l-.71,4.65c0,.06-.07,.11-.15,.1-.07,0-.12-.07-.11-.13l.71-4.64c0-.06,.07-.11,.15-.1,.07,0,.11,.06,.11,.12Z" style="opacity:.2;"></path><path d="M698.3,193.36h0l-.33,4.51c0,.06-.07,.11-.14,.11-.07,0-.11-.05-.12-.12l.33-4.51c0-.06,.07-.11,.14-.11,.07,0,.12,.06,.12,.12Z" style="opacity:.2;"></path><path d="M700.78,194.17l-.15,3.36c0,.06-.06,.11-.13,.11-.07,0-.13-.06-.12-.12l.15-3.36c0-.06,.06-.11,.13-.11,.07,0,.13,.06,.12,.12Z" style="opacity:.2;"></path></g><path d="M701.46,198.48l2.54-.73s.16,3.12-2.86,4.05l.32-3.32Z" style="fill:#e9b376;"></path></g></g><path d="M631.41,136.83c2.07-4.3,10.5-8.3,20.2-4.15,8.76,3.74,11.29,16.49,4.96,16.97-6.33,.48-13.8-5.72-13.8-5.72l-11.36-7.11Z" style="fill:#fff; opacity:.4;"></path></g></g><g id="freepik--Characters_2--inject-2"><g><g><g><path d="M347.14,156.24c.53,.53,27.56-19.6,27.56-19.6l-4.06-31.78,7.69-.87s16.13,34.93,9.25,40.93c-6.88,6-32.5,24.9-33.03,24.73s-7.41-13.41-7.41-13.41Z" style="fill:#ffb573;"></path><g><path d="M370.64,105.95s-3.4-1.05-4.74-3.67c-1.34-2.62-3.11-4.35-3.98-6.37-.86-2.02,1.8-.72,3.07,.26,1.28,.98,2.73,2.07,3.31,.99,.58-1.08,.29-11.59,1.26-12.99,.97-1.4,1.55,.28,1.55,.28,0,0,0-2.55,1.01-2.83,.26-.07,.99,.19,1.17,1.35,.41,2.62,.99,8.16,.99,8.16-.04-.32-.27-7.21-.17-8.24,.13-1.35,.88-1.93,1.67-1.82,1.11,.14,1.69,8.68,1.97,9.02,0,0-.5-4.9,.7-5.72s1.68,2.25,1.59,5.03c-.08,2.55,.42,7.59,.09,10.17-.41,3.19-1.41,5.24-4.29,6.12-2.88,.88-5.2,.26-5.2,.26Z" style="fill:#ebb373;"></path><path d="M371.49,91.17c-.12,0-.23-.09-.25-.22-.24-2.03-.39-4.1-.44-6.15,0-.14,.11-.25,.24-.26,.17,0,.25,.11,.26,.24,.05,2.04,.2,4.09,.44,6.1,.02,.14-.08,.26-.22,.28h-.03Z" style="fill:#263238; opacity:.3;"></path><path d="M370.21,92.66c-.1,0-.2-.06-.23-.17-.05-.13,.02-.27,.15-.32,2.52-.91,5.35-1.07,7.96-.43,.13,.03,.22,.17,.18,.3-.03,.13-.17,.22-.3,.18-2.51-.61-5.23-.47-7.67,.41-.03,.01-.06,.02-.08,.02Z" style="fill:#263238; opacity:.3;"></path><path d="M373.48,102.51c-.13,0-.24-.1-.25-.23-.06-1.01-.5-2.01-1.19-2.75-.7-.74-1.67-1.23-2.68-1.36-.14-.02-.23-.14-.22-.28s.15-.24,.28-.22c1.14,.14,2.19,.68,2.98,1.51,.77,.82,1.26,1.94,1.33,3.06,0,.14-.1,.26-.23,.27h-.02Z" style="fill:#263238; opacity:.3;"></path></g></g><path d="M298.45,261.01l-6.82-.76c-1.24,6.05-1.7,12.24-1.37,18.41,.24,4.01,6.71,8.54,6.71,8.54,0,0,2.27,4.75,3.54,3.28,1.27-1.47-2.18-8.03-2.32-9.55-.41-4.73-.86-9.5-.47-10.13,.39-.64,.49,5.92,2.5,7.33,2.01,1.41,.42-6.76,1.12-9.53,.71-2.78-1.31-7.27-2.9-7.58Z" style="fill:#ffb573;"></path><path d="M314.3,236.42c-.1,0-.2-.06-.23-.16-.05-.13,.02-.27,.15-.32,11.05-4.09,20.67-11.78,27.09-21.65,.08-.12,.23-.15,.35-.07,.12,.08,.15,.23,.07,.35-6.48,9.96-16.19,17.72-27.34,21.85-.03,.01-.06,.02-.09,.02Z" style="fill:#263238; opacity:.2;"></path><g><path d="M361.37,145.24s-14.31,9.92-14.76,10.09l3.68,24.07c-.29-.34,23.69-17.08,24.22-17.16s-13.15-17-13.15-17Z" style="fill:#407BFF;"></path><polygon points="350.29 179.4 348.13 165.24 352.73 177.46 350.29 179.4" style="isolation:isolate; opacity:.2;"></polygon><path d="M361.37,145.24s-14.31,9.92-14.76,10.09l3.68,24.07c-.29-.34,23.69-17.08,24.22-17.16s-13.15-17-13.15-17Z" style="fill:#fff; opacity:.3;"></path><path d="M298.92,156.76s-11.13-.92-13.32,12.13c-2.18,13.04-5.76,35.21-5.76,35.21l21.57,1.87c1.09-.8-2.49-49.21-2.49-49.21Z" style="fill:#407BFF;"></path><path d="M298.92,156.76s-11.13-.92-13.32,12.13c-2.18,13.04-5.76,35.21-5.76,35.21l21.57,1.87c1.09-.8-2.49-49.21-2.49-49.21Z" style="fill:#fff; opacity:.3;"></path><path d="M364.91,249.6l-11.1-47.19-7.2-47.07-16.03-.15-13.95-.34-17.71,1.92-6.03,22.67s4.95,33.27,5.1,35c.18,2.12,2.54,40.37,2.54,40.37,24.8,1.63,65.06-3.4,64.38-5.2Z" style="fill:#407BFF;"></path><path d="M364.91,249.6l-11.1-47.19-7.2-47.07-16.03-.15-13.95-.34-17.71,1.92-6.03,22.67s4.95,33.27,5.1,35c.18,2.12,2.54,40.37,2.54,40.37,24.8,1.63,65.06-3.4,64.38-5.2Z" style="fill:#fff; opacity:.3;"></path><polygon points="297.66 205.65 301.42 205.97 301.2 177.46 305.08 212.41 297.87 213.42 297.15 208.36 297.66 205.65" style="isolation:isolate; opacity:.2;"></polygon></g><polygon points="281.98 204.29 282.04 223.96 291.32 264.13 299.7 262.61 295.94 222.59 298.55 205.73 281.98 204.29" style="fill:#ffb573;"></polygon><g><path d="M314.47,155.12s.9-6.44-2.87-17.6c0-.01,.58-.3,.58-.31-.52-1.56-1.06-3-1.57-4.25-.01-.04-.01-.05-.01-.05l15.88,8.88c-.21,3.63,1.4,10.56,2.3,13.48,0,0,3.36,6.41-3.74,6.96-5.19,.4-10.57-7.1-10.57-7.1Z" style="fill:#ffb573;"></path><path d="M326.96,146.86l-8.99-1.62c.93,2.73,3.52,5.91,9.73,5.91,0,0-.75-3.07-.74-4.29Z" style="opacity:.2;"></path><path d="M336,114.6c1.98,3.5,2.96,11.34-2.81,9.95-5.77-1.39-.59-15.96,2.81-9.95Z" style="fill:#263238;"></path><path d="M310.15,125.4c1.47,9.76,2.1,15.29,7.51,19.85,8.13,6.85,19.59,1.42,21.07-8.61,1.33-9.03-1.3-23.47-11.26-26.43-9.81-2.92-18.79,5.44-17.32,15.2Z" style="fill:#ffb573;"></path><path d="M307.08,112.59c.87-5.53,7.6-9.13,11.63-6.7,.6,.36-3.54,2.21-3.07,1.99l.41,8c-.59-.08-1.68,.7-2.11,2.56,0,0,2.36,10.26-1.52,14.99-11.05-3.96-12.41-17.93-5.33-20.85Z" style="fill:#263238;"></path><path d="M307,133.92c1.01,2.46,3.06,4.21,5.09,5,3.06,1.2,4.94-1.47,4.39-4.54-.5-2.76-2.68-6.71-5.89-6.59-3.16,.11-4.74,3.32-3.59,6.13Z" style="fill:#ffb573;"></path><path d="M324.44,126.99c.09,1,.69,1.77,1.35,1.7,.66-.06,1.12-.93,1.03-1.93-.09-1-.69-1.77-1.35-1.7-.66,.06-1.12,.93-1.03,1.94Z" style="fill:#263238;"></path><path d="M334.31,126.31c.09,1,.69,1.77,1.35,1.7,.66-.06,1.12-.93,1.03-1.94-.09-1-.69-1.77-1.35-1.7-.66,.06-1.12,.93-1.03,1.93Z" style="fill:#263238;"></path><path d="M331.06,126.04s3.62,4.71,4.82,6.65c-1.29,1.39-3.74,1.02-3.74,1.02l-1.07-7.67Z" style="fill:#d58745;"></path><path d="M321.89,123.68c.16,.04,.34,0,.46-.14,1.45-1.53,3.17-1.25,3.19-1.25,.26,.05,.5-.13,.55-.38,.05-.26-.12-.5-.38-.55-.09-.02-2.24-.37-4.04,1.53-.18,.19-.17,.49,.02,.67,.06,.06,.13,.1,.21,.11Z" style="fill:#263238;"></path><path d="M338.2,121.86c.09-.02,.17-.06,.24-.13,.18-.19,.18-.49,0-.67-1.86-1.82-3.97-1.35-4.07-1.34-.25,.06-.41,.31-.36,.57,.06,.25,.3,.41,.56,.36,.09-.02,1.72-.37,3.21,1.09,.12,.11,.28,.15,.43,.12Z" style="fill:#263238;"></path><path d="M342.79,109.78c-.48-2.51-3.19-4.49-5.66-3.83,.8-1.64,.08-3.84-1.52-4.7-1.61-.86-3.84-.23-4.76,1.34-.09-1.53-1.72-2.65-3.25-2.53-1.52,.12-2.83,1.22-3.61,2.54-.47,.81-.82,1.75-1.58,2.3-1.19,.86-2.82,.42-4.29,.31-2.46-.19-4.98,.75-6.73,2.49-1.74,1.75-2.68,4.27-2.49,6.73-1.36,.37-2.03,1.47-2.92,2.56l7.52,1.2c2.11-3.94,7.8-.89,10.65,.19,2.05,.78,4.07,.84,5.62,.78,1.56-.06,2.26-1.2,2.28-2.75,2.38,.92,5.18,.98,7.43-.24,2.24-1.23,3.76-3.87,3.28-6.38Z" style="fill:#263238;"></path><path d="M307.53,113.05s-.1-.01-.14-.04c-1.47-1-3.21-1.64-4.54-1.66-.14,0-.25-.12-.25-.25s.15-.26,.25-.25c1.45,.03,3.25,.68,4.81,1.75,.11,.08,.14,.23,.07,.35-.05,.07-.13,.11-.21,.11Z" style="fill:#263238;"></path><path d="M307.35,112.95c-.08,0-.16-.04-.21-.11-1.11-1.64-1.58-3.71-1.3-5.67,.02-.14,.15-.23,.28-.21,.14,.02,.23,.15,.21,.28-.27,1.84,.18,3.78,1.22,5.32,.08,.11,.05,.27-.07,.35-.04,.03-.09,.04-.14,.04Z" style="fill:#263238;"></path><path d="M313.74,133.8c-.12,0-.22-.08-.24-.2-.16-.79-.53-1.54-1.07-2.15-.35-.39-.91-.89-1.63-1-.64-.1-1.3,.18-1.58,.67-.07,.12-.22,.16-.34,.1-.12-.07-.16-.22-.1-.34,.38-.68,1.23-1.06,2.09-.92,.87,.13,1.53,.71,1.93,1.16,.59,.67,1,1.5,1.18,2.38,.03,.14-.06,.27-.2,.29-.02,0-.03,0-.05,0Z" style="fill:#263238; opacity:.2;"></path><path d="M329.02,137c-1.41,0-2.82-.53-3.87-1.48-.1-.09-.11-.25-.02-.35,.09-.1,.25-.11,.35-.02,1.1,1,2.64,1.49,4.11,1.32,.13-.01,.26,.08,.28,.22,.02,.14-.08,.26-.22,.28-.21,.02-.42,.04-.64,.04Z" style="fill:#263238;"></path></g></g><g><polygon points="134.38 217.01 131.94 255.39 109.98 252.77 109.98 248.83 134.38 217.01" style="opacity:.2;"></polygon><path d="M123.76,217.97c-.86-9.9-4.32-28.05-10.27-47.1-1.94-6.2,4.98-13.05,4.98-13.05,0,0,4.47-.36,5.29-.45,.9-.11,4.25-1.48,5.17-1.56,6.95-.59,9.98-.56,16.19-.2,1.56,.09,3.64,.27,5.21,.4,.51,.05,3.56,.89,4.05,.94,0,0,8.92,10.61,9.4,18.1,.26,4.18,2.25,5.99,2.03,15.99-.04,6.8-4.89,16.7-5.33,26.25l-36.71,.67Z" style="fill:#fff;"></path><path d="M135.92,185.24c-.47-15.28-6.62-21.89-7.44-25.6-.22-.97,.26-3.18,.73-3.87l-4.15,.47c-6.45,1.27-10.44,1.23-13.66,5.53-.62,.83,.15,6.77,.2,7.64,.08,1.57,1.17,6.4,2.63,12.21,1,4.04,2.18,8.57,3.31,12.84,1.45,5.45,2.66,6.87,3.13,8.61l-14.97,44.17c-.42,1.18,.37,2.44,1.62,2.58l21.49,2.25c1.05,.11,2-.64,2.12-1.69,1.07-8.97,5.53-47.57,4.99-65.14Z" style="fill:#407BFF;"></path><path d="M155.85,156.3s5.28-1.04,11,7.28c5.71,8.32,7.33,44.73,7.33,44.73l-12.42,.64,1.81-35.48-7.71-17.17Z" style="fill:#407BFF;"></path><path d="M164.16,215.18s4.51-27.95,3.31-34.94c-1.2-6.99-11.62-23.95-11.62-23.95l-4.76-.33-3.55-.19s11.18,5.19,14.37,16.51c2.1,7.44-2.35,39.36-1.87,45.03l2.42,11.74,5.98-.27-4.28-13.6Z" style="fill:#407BFF;"></path><path d="M165.25,208.24l2.34-21.55,.86,22.25s-2.24-.11-3.2-.7Z" style="opacity:.3;"></path><polygon points="124.02 202.49 122.18 181.9 120.77 204.32 142.05 212.97 124.02 202.49" style="opacity:.3;"></polygon><path d="M115.6,158.49s-6.76,1.66-8.05,9.04c-1.3,7.38-3.02,44.26-1.55,46.6,1.47,2.34,42.57,15.55,42.57,15.55l4.4-11.42-31.05-15.02s.25-10.54,.51-18.75c.13-4.34,.27-8.03,.36-9.17,.28-3.29-7.19-16.83-7.19-16.83Z" style="fill:#407BFF;"></path><path d="M152.29,220.04s12.92,3.1,15.92,5.68c1.33,1.14,1.29,3.02,1.29,3.02l-20.92,.93,3.71-9.63Z" style="fill:#b97964;"></path><path d="M115.48,218.37c.41,.15,18.19,6.48,18.19,6.48v2.23l-19.1-6.03,.91-2.68Z" style="opacity:.3;"></path><g><path d="M152.63,109.64c5.93,3.96,7.62,9.64,7.54,13.76-.73,5.56-2.66,9.5-4.16,14.9l-14.74-32.54c3.44,.68,4.99-.02,11.36,3.88Z" style="fill:#263238;"></path><path d="M145.24,106.77c-5.77-2.69-11.44,.48-14.75,2.69-3.62,3.07-5.75,7.53-5.86,12.27,0,4.43,0,9.8,2.69,12.11,1.51,1.34,3.5,1.98,5.51,1.77l21.92-20.22c-2.38-3.64-5.66-6.6-9.51-8.62Z" style="fill:#263238;"></path><path d="M145.61,166.68c-1.69,1.74-3.22,1.16-5.47,.24-13.38-4.81-9.42-11.27-9.42-11.27,2.54-2.98,2.65-6.54,1.72-11.97-.02-.16-.02-.32-.02-.48,0-.72,.24-1.43,.67-2.02,1.12-1.64,3.35-2.06,4.99-.94h0l5.99,1.72h0c.02,.08,.03,.16,.05,.26,.02,2.97-.07,5.28-.05,7.09,.04,.22,0,.45,.01,.66h0c.04,.22,.03,.45,.03,.67,.14,2.49,4.35,6.14,6.06,7,1.04,.59,1.15,3.19-4.57,9.05Z" style="fill:#b97964;"></path><path d="M144.07,141.93h0c0,.09,.02,.18,.05,.27,.02,2.97-.07,5.28-.05,7.09-.01,.22,0,.44,.01,.66h0c.01,.23,.04,.46,.08,.69h0c-4.55-1.24-8.62-3.84-11.64-7.46h0c0-.71,.22-1.41,.62-2.01,1.1-1.65,3.33-2.09,4.98-1l5.95,1.75Z" style="isolation:isolate; opacity:.2;"></path><path d="M127.92,123.02c.23,10.25,.1,14.57,4.97,20.14,7.33,8.36,19.6,6.13,22.43-3.93,2.47-9.05,1.73-24.26-7.93-28.96-9.66-4.7-19.69,2.49-19.47,12.75Z" style="fill:#b97964;"></path><path d="M123.38,131.8c1.04,2.21,2.9,3.7,4.67,4.31,2.66,.91,4.44-3.34,3.74-6.15-.63-2.53-3.17-4.38-5.86-4.07-2.65,.31-3.74,3.38-2.55,5.91Z" style="fill:#b97964;"></path><path d="M129.18,131.99h0c-.14,0-.25-.12-.25-.25,.02-.92-.34-1.83-.98-2.49-.64-.66-1.53-1.05-2.45-1.07-.14,0-.25-.12-.24-.26,0-.14,.11-.24,.25-.24h0c1.05,.02,2.07,.47,2.8,1.23,.73,.76,1.13,1.79,1.12,2.84,0,.14-.11,.25-.25,.25Z" style="fill:#263238; opacity:.2;"></path><path d="M141.27,127.44c-.04,1.09,.47,2.04,1.15,2.11,.68,.07,1.26-.76,1.3-1.85,.04-1.09-.47-2.04-1.15-2.11-.68-.07-1.26,.76-1.3,1.85Z" style="fill:#263238;"></path><path d="M151.41,128.26c-.04,1.06,.48,1.97,1.15,2.05,.67,.07,1.25-.73,1.29-1.79,.04-1.06-.48-1.97-1.15-2.05-.67-.07-1.25,.73-1.29,1.79Z" style="fill:#263238;"></path><path d="M139.44,123.46c.13,.03,.27,0,.38-.09,1.71-1.33,3.45-.67,3.47-.66,.26,.1,.54-.03,.62-.29,.08-.26-.06-.56-.32-.67-.09-.04-2.27-.87-4.39,.78-.21,.16-.24,.49-.07,.72,.08,.11,.2,.18,.32,.2Z" style="fill:#263238;"></path><path d="M155.26,123.39c.11-.03,.2-.1,.25-.2,.11-.23,.02-.53-.2-.68-2.24-1.52-4.07-.66-4.14-.62-.22,.11-.29,.39-.17,.64,.12,.25,.4,.37,.62,.26,.07-.03,1.5-.68,3.28,.53,.12,.08,.24,.1,.36,.07Z" style="fill:#263238;"></path><path d="M148.69,127.53s1.28,3.99,2.9,6.54c.28,.45,.03,1.04-.48,1.18-1.31,.36-2.76-.19-2.76-.19l.34-7.53Z" style="fill:#a24e3f;"></path><path d="M142.17,125.6l2.41-.36s-1.44,1.65-2.41,.36Z" style="fill:#263238;"></path><path d="M152.45,126.48l2.41-.36s-1.44,1.65-2.41,.36Z" style="fill:#263238;"></path><path d="M147.69,137.87c-.85,.95-1.99,2.88-1.99,2.88-.19-.07-.39-.14-.57-.23-2.59-1.04-3.45-2.38-3.62-3.55-.09-.64,.04-1.23,.2-1.69,.18-.53,.44-.87,.44-.87,1.04,1.37,3.39,2.53,4.66,3.1,.53,.24,.88,.37,.88,.37Z" style="fill:#263238;"></path><path d="M146.81,137.5l-.61,.83c-2.44-.99-4.02-2.01-4.49-3.06,.18-.53,.44-.87,.44-.87,1.04,1.37,3.39,2.53,4.66,3.1Z" style="fill:#fff;"></path><path d="M145.12,140.52c-2.59-1.04-3.45-2.38-3.62-3.55,.87,.39,1.88,.95,2.65,1.73,.59,.59,.86,1.23,.97,1.82Z" style="fill:#de5753;"></path><path d="M131.47,125.52s5.85-6.69,6.04-12.41c0,0,20.94-4.65,19.01,13.43,0,0,4.53-15.63-12.58-18.18-17.11-2.55-20.64,19.79-12.89,27.58,.03-.08-3.2-6.23,.42-10.42Z" style="fill:#263238;"></path><path d="M113.21,111.91c.4,4.66,4.5,8.12,9.17,7.72,4.66-.4,8.12-4.5,7.72-9.17-.38-4.38-4.04-7.75-8.44-7.75-4.86,.23-8.63,4.33-8.44,9.2Z" style="fill:#263238;"></path><path d="M151.71,110.6c2.25,2.16,3.76,4.98,4.3,8.06,0,2.23-3.03,3.84-3.03,3.84l-3.71-4.86v4.27c-6.07-.67-9.58-3.89-11.66-8.54l3.38-6.04s8.7,1.53,10.72,3.28Z" style="fill:#263238;"></path><path d="M122.78,116.79c-.52,2.42-1.95,4.63-3.94,6.09,1.07,.09,2.17-.18,3.08-.74-.04,.87-.24,1.74-.57,2.55,2.46-2.04,3.91-5.25,3.82-8.44l-2.39,.54Z" style="fill:#263238;"></path></g></g><g><rect x="178.34" y="202.81" width="58.01" height="6.21" style="fill:#407BFF;"></rect><rect x="178.34" y="203.46" width="19.93" height="4.91" style="fill:#fff;"></rect><rect x="203.36" y="202.81" width="1.78" height="6.21" style="fill:#fff; opacity:.3;"></rect><rect x="230.5" y="202.81" width="1.78" height="6.21" style="fill:#fff; opacity:.3;"></rect><rect x="178.34" y="202.81" width="21.06" height="6.21" style="opacity:.2;"></rect></g><g><rect x="47.69" y="223.08" width="380.99" height="225.4" style="fill:#263238;"></rect><rect x="47.69" y="223.08" width="71.21" height="225.4" style="opacity:.3;"></rect><rect x="47.69" y="223.08" width="380.99" height="5.03" style="opacity:.3;"></rect><g><rect x="41.6" y="208.7" width="388.27" height="14.38" style="fill:#263238;"></rect><rect x="41.6" y="208.7" width="388.27" height="14.38" style="opacity:.3;"></rect><rect x="40.98" y="208.7" width="82.59" height="14.38" style="opacity:.3;"></rect></g><g><g><rect x="147.8" y="252.6" width="121.91" height="90.86" style="opacity:.3;"></rect><rect x="153.03" y="258.22" width="111.44" height="79.61" style="fill:#263238;"></rect></g><polygon points="147.8 343.46 153.03 337.84 264.47 337.84 269.71 343.46 147.8 343.46" style="fill:#fff; opacity:.3;"></polygon><polygon points="147.8 252.6 153.07 258.18 264.47 258.22 269.71 252.6 147.8 252.6" style="opacity:.3;"></polygon></g><g><g><rect x="291.31" y="252.6" width="121.91" height="90.86" style="opacity:.3;"></rect><rect x="296.55" y="258.22" width="111.44" height="79.61" style="fill:#263238;"></rect></g><polygon points="291.31 343.46 296.55 337.84 407.99 337.84 413.22 343.46 291.31 343.46" style="fill:#fff; opacity:.3;"></polygon><polygon points="291.31 252.6 296.58 258.18 407.99 258.22 413.22 252.6 291.31 252.6" style="opacity:.3;"></polygon></g><rect x="47.81" y="223.08" width="380.99" height="225.4" style="opacity:.3;"></rect></g></g></g><g id="freepik--Characters_1--inject-2"><g><g><g><g><g><path d="M379.44,206.41c-.67,6.75-1.42,13.93-5.51,19.6-3.8,5.26-10.41,7.94-16.81,6.87-.47-.08-.68,.64-.2,.72,6.41,1.07,13.06-1.38,17.11-6.49,4.63-5.85,5.45-13.53,6.16-20.7,.05-.48-.7-.48-.75,0h0Z" style="fill:#263238;"></path><path d="M353.23,240.16c.47-2.44,2.36-4.1,4.3-4.76,1.94-.65,3.99-.52,6-.67,4.83-.35,9.79-2.55,12.86-7.2,3.12-4.72,2.3-10.68,2.62-16.78,.32-6.04,.54-11.47,2.5-18.95,1.21-4.62,8.63-13.3,16.44-10.08l12.91,6.43c5.55,8,6.86,12.96,8.52,23.33,1.66,10.37-.78,24.54-5.22,33.55-3.25,6.61-8.1,11.77-13.13,16.32-3.84,3.47-8.12,6.78-12.86,6.84-2.84,.04-5.59-1.1-8.27-2.22-4.26-1.78-8.51-3.55-12.77-5.33-2-.84-4.08-1.73-5.57-3.59-1.49-1.86-2.18-5.01-.97-7.16-1.86-.8-3.78-1.64-5.28-3.23-1.51-1.59-2.54-4.11-2.08-6.51Z" style="fill:#263238;"></path><g><g><path d="M385.53,230.61s3.88,1.91,8.66,6.03c1,.86,2.09,1.6,3.26,2.22,3.14,1.67,5.99,2.62,6.77,1.11,.17-.33,.3-.69,.4-1.07,.66-2.53-.95-6.01-3.02-8.22-2.01-2.15-2.06-2.9-1.64-5.39,.22-1.41,.73-2.86,1.32-4.28l-2.66-1.6-9.49-9.58c1.09,5.88,1.41,17.31-3.59,20.78Z" style="fill:#e9b376;"></path><path d="M399.88,225.84c-2.61-1.55-5.48-4.24-5.13-7.31,.15-1.29,.43-2.52,.74-3.3l5.3,7.02c-.44,1.13-.59,1.88-.91,3.59Z" style="opacity:.2;"></path><path d="M387.29,199.03c.89,9.76,1.07,13.89,6.1,19.01,7.57,7.69,19.22,5.11,21.23-4.56,1.81-8.7,.04-23.19-9.54-27.29-9.44-4.04-18.68,3.09-17.79,12.85Z" style="fill:#e9b376;"></path><path d="M399.92,202.2c.05,1.03,.61,1.88,1.25,1.89,.64,.01,1.12-.81,1.07-1.84-.05-1.03-.61-1.88-1.25-1.89-.64-.01-1.12,.81-1.07,1.84Z" style="fill:#263238;"></path><path d="M409.54,202.17c.05,1,.61,1.82,1.25,1.84,.64,.01,1.12-.79,1.07-1.79-.05-1-.61-1.82-1.25-1.83-.64-.01-1.12,.79-1.07,1.79Z" style="fill:#263238;"></path><path d="M397.89,198.61c.12,.01,.25-.02,.35-.11,1.5-1.39,3.2-.9,3.21-.9,.25,.07,.5-.07,.56-.32,.06-.26-.1-.52-.36-.6-.09-.03-2.21-.64-4.08,1.09-.19,.17-.19,.48,0,.68,.09,.1,.2,.15,.32,.17Z" style="fill:#263238;"></path><path d="M412.78,197.28c.1-.03,.18-.11,.22-.21,.09-.22-.02-.5-.24-.63-2.23-1.25-3.88-.3-3.95-.26-.2,.12-.24,.39-.11,.62,.14,.23,.41,.31,.6,.2,.06-.04,1.36-.76,3.13,.24,.11,.06,.24,.07,.34,.04Z" style="fill:#263238;"></path><path d="M406.93,201.7s1.53,3.65,3.25,5.93c.3,.4,.11,.98-.35,1.15-1.2,.44-2.61,.04-2.61,.04l-.28-7.12Z" style="fill:#d58745;"></path><path d="M400.63,200.4l2.24-.53s-1.22,1.67-2.24,.53Z" style="fill:#263238;"></path><path d="M410.38,200.41l2.24-.53s-1.22,1.67-2.24,.53Z" style="fill:#263238;"></path></g><path d="M415.31,201.45s-4.41-12.29-11.9-14.13c-.34-.08-4.99,10.63-9.53,12.71,0,0-1.02,7.46-2.52,7.98-1.5,.52-5.26-7.63-5.26-7.63,0,0-6.15-13.45,2.49-17.1,8.64-3.65,17.63-3.28,22.98,4.03,5.36,7.31,4.47,12.12,3.74,14.13Z" style="fill:#263238;"></path><path d="M384.61,206.98c1.15,2,3.02,3.26,4.74,3.69,2.58,.65,3.92-3.5,3.03-6.09-.79-2.33-3.33-3.87-5.84-3.36-2.48,.5-3.25,3.48-1.93,5.77Z" style="fill:#e9b376;"></path><path d="M390.62,206.88c-.13,0-.24-.1-.25-.23-.06-.86-.46-1.69-1.11-2.26-.66-.58-1.81-.84-2.38-.81-.13,0-.26-.1-.26-.23,0-.14,.1-.26,.23-.27,.65-.05,1.97,.26,2.74,.93,.75,.66,1.22,1.6,1.28,2.6,0,.14-.09,.26-.23,.27h-.02Z" style="fill:#263238; opacity:.2;"></path></g></g><path d="M401.85,230.19s6.55,1.3,12.19,5.05c5.64,3.75,11.63,24.73,11.63,24.73l-11.42,.96-12.4-30.74Z" style="fill:#407BFF;"></path><path d="M401.85,230.19s6.55,1.3,12.19,5.05c5.64,3.75,11.63,24.73,11.63,24.73l-11.42,.96-12.4-30.74Z" style="fill:#fff; opacity:.7;"></path><path d="M373.39,258.24l-3.88-25.15c3.98-3.41,17.88-4.46,17.88-4.46,8.63,3.89,14.63,6.91,13.55,.59l10.93,11.51s5.62,5.94,5.38,14c-.19,6.18-2.71,24.76-1.84,32.35l2.09,16.61c-22.47,17.59-43.16,1.42-43.16,1.42,1.08-3.2,5.35-7.94,5.88-11.08-.21-4.03,1.56-7.02-.77-15.4-1.75-6.31-6.07-19.49-6.05-20.39Z" style="fill:#407BFF;"></path><g style="opacity:.7;"><path d="M373.39,258.24l-3.88-25.15c3.98-3.41,17.88-4.46,17.88-4.46,8.63,3.89,14.63,6.91,13.55,.59l10.93,11.51s5.62,5.94,5.38,14c-.19,6.18-2.71,24.76-1.84,32.35l2.09,16.61c-22.47,17.59-43.16,1.42-43.16,1.42,1.08-3.2,5.35-7.94,5.88-11.08-.21-4.03,1.56-7.02-.77-15.4-1.75-6.31-6.07-19.49-6.05-20.39Z" style="fill:#fff;"></path></g><g><path d="M372.95,231.28s-4.6,.24-7.27,4.69c-1.71,2.85-7.68,21.47-11.45,33.48-1.92,6.11-.31,11.37,4.78,12.85h34.08l.95-7.59-25.48-3.21s7.51-21.7,8.63-28.26c1.12-6.55-4.24-11.96-4.24-11.96Z" style="fill:#e9b376;"></path><path d="M368.53,271.51s-3.07-.01-4.97,1.23c0,0,1.07-3.45,5.93-4.1l-.97,2.87Z" style="opacity:.2;"></path></g></g><path d="M356.67,255.83l16.72,5.38,5.38-19.12s-4.28-10.85-4.77-11.09c-.49-.24-6.97,.32-9.32,6.55s-8.03,18.28-8.03,18.28Z" style="fill:#407BFF;"></path><path d="M356.67,255.83l16.72,5.38,5.38-19.12s-4.28-10.85-4.77-11.09c-.49-.24-6.97,.32-9.32,6.55s-8.03,18.28-8.03,18.28Z" style="fill:#fff; opacity:.7;"></path><path d="M423.43,260.16s3.71,9.33,4.48,11.75c.77,2.41,3.22,7.88-1.13,9.49-4.34,1.61-33.29,0-33.29,0v-7.72s21.96-2.6,22.4-2.99c.43-.39,.91-9.97,.91-9.97l6.63-.56Z" style="fill:#e9b376;"></path><g style="isolation:isolate; opacity:.2;"><path d="M408.42,277.06c-.25-.53-.9-.87-1.45-.67,.56-.66,1.14-1.35,1.38-2.19,.24-.84,.04-1.86-.69-2.33l-5.28,.86c.6,2.63,1.32,5.71,1.92,8.33,.05,.22,.11,.45,.25,.63,.43,.55,1.3,.3,1.93,0,.42-.19,.87-.42,1.05-.84,.19-.42-.11-1.05-.57-.97,.51-.29,.99-.66,1.29-1.16,.31-.5,.41-1.14,.17-1.67Z"></path></g><path d="M406.13,212c-1.66,0-2.94-.82-3.44-1.58-.08-.12-.04-.27,.07-.35,.11-.07,.27-.04,.35,.07,.35,.54,1.45,1.35,3.02,1.35,.14,0,.25,.11,.25,.25s-.11,.25-.25,.25Z" style="fill:#263238;"></path></g><polygon points="373.75 259.78 377.1 248.04 375.31 265 373.75 259.78" style="isolation:isolate; opacity:.2;"></polygon><path d="M416.8,260.72s.81-6.86,.19-9.43c0,0,1.27,4.51,1.38,9.29l-1.57,.13Z" style="isolation:isolate; opacity:.2;"></path><path d="M415.9,270.68s3.77,.14,5.77,2.07c0,0-.62-3.78-5.45-3.75l-.32,1.69Z" style="isolation:isolate; opacity:.2;"></path><rect x="397.78" y="259.62" width="1.86" height="13.11" rx=".86" ry=".86" transform="translate(-63.68 139.63) rotate(-18.42)" style="fill:#263238;"></rect><path d="M391.11,274.34s5.84-5.35,6.86-4.85c1.02,.5,1.84,1.02,1.84,1.02,0,0,5.04-1.65,5.54-.26,.49,1.39-.33,2.1-.33,2.1,0,0,2.12,.46,1.53,2.01-.58,1.55-1.04,2.13-1.04,2.13,0,0,1.25,.89,.77,2.12-.48,1.23-1.55,1.35-1.55,1.35,0,0,2.01,1.65,.39,2.15-.87,.27-12.57,.09-13.45-.22-1.85-.67-.57-7.55-.57-7.55Z" style="fill:#ebb373;"></path><rect x="385.26" y="280.13" width="37.78" height="2.2" style="fill:#fff;"></rect></g><g><g><g><path d="M290.34,250.07l-11.54,7.34s7.32,27.03,9.62,30.66l14.38-6.84-12.47-31.16Z" style="fill:#e4897b;"></path><g><path d="M256.08,214.67c-.21,1.96-.12,3.7,.54,4.57,.68,.9,1.85,1.52,3.11,1.95-1.12,2.16-3.95,3.89-3.95,3.89h-7.92s-3.58,.8-4.94,.03c-1.12-.63-2.31-1.23-3.38-1.95-.54-.37-1.05-.8-1.56-1.25,1.67-.97,3.19-2.3,3.73-4.03,1.38-4.48-.1-19.78-.1-19.78l16.72,6.87s-.13,.37-.32,1.01c-.53,1.77-1.6,5.54-1.93,8.7Z" style="fill:#e4897b;"></path><path d="M266.12,172.95c-.46-.58,.81-13.68-21.75-7.16-16.75,4.84-10.42,17.97-10.42,17.97l19.15-13.83,13.02,3.03Z" style="fill:#263238;"></path><path d="M244.38,205.86s3.59,7.47,11.85,7.21c.32-3.15,1.4-6.93,1.93-8.7-.62-.23-1.02-.37-1.02-.37l-12.75,1.86Z" style="isolation:isolate; opacity:.2;"></path><path d="M265.68,170.27s4.87,13.77-1.62,20.66c-6.48,6.89-11.53-19.51-11.53-19.51l13.15-1.16Z" style="fill:#263238;"></path><path d="M244.36,206.38c5.1,3.85,10.88,4.79,15.73,2.16,3.12-1.68,5.68-4.56,6.91-8.23,.17-.48,.3-.98,.42-1.49,2.05-9.37,.33-24.76-9.92-28.69-7.29-2.85-15.53,.74-18.38,8.05-.82,2.07-1.13,4.31-.92,6.54,.81,10.35,.21,17.16,6.16,21.66Z" style="fill:#e4897b;"></path><path d="M252.23,187.41c-.05,1.08,.61,1.96,1.33,1.94,.72-.02,1.27-.92,1.25-2-.01-1.08-.62-1.96-1.33-1.94-.71,.02-1.27,.9-1.25,2Z" style="fill:#263238;"></path><path d="M262.62,187.41c-.05,1.08,.62,1.96,1.33,1.94,.71-.02,1.27-.92,1.25-2-.01-1.08-.62-1.96-1.33-1.94-.71,.02-1.27,.97-1.25,2Z" style="fill:#263238;"></path><path d="M260.53,187.6c1.06,2.56,2.46,4.97,4.18,7.15-1.16,.86-2.64,1.17-4.05,.84l-.13-7.99Z" style="fill:#de5753;"></path><path d="M267.02,182.97c-.16,.09-.36,.09-.52,0-1.07-.67-2.39-.8-3.57-.35-.24,.12-.54,.02-.66-.22-.12-.24-.02-.54,.22-.66h0c1.47-.61,3.15-.47,4.5,.38,.24,.13,.32,.43,.19,.67h0c-.05,.08-.1,.13-.17,.18Z" style="fill:#263238;"></path><path d="M252.04,183.53c-.1,0-.2-.03-.28-.09-.18-.2-.17-.51,.03-.7h0c1.17-1.1,2.8-1.55,4.37-1.22,.26,.07,.42,.34,.35,.61h0c-.08,.26-.34,.41-.61,.35h0c-1.24-.23-2.52,.15-3.44,1.01-.13,.08-.28,.09-.42,.04Z" style="fill:#263238;"></path><path d="M245.56,171.63l.87,4.53c-1.44,.9-2.23,2.65-1.42,4.4,1.73,3.74-.04,9.84-2.83,12.41,0,0-.2-1.66-1.58-1.17-1.38,.49-.05,7.46,1.41,11.75,0,0-3.19-2.13-6.14-11.07-2.73-8.26-3.47-15.25-1.96-18.62l11.66-2.23Z" style="fill:#263238;"></path><path d="M233.84,193.32c1.2,2.32,3.27,4.08,5.76,4.88,3.3,1.04,5.06-1.9,4.25-5.08-.75-2.82-3.37-6.85-6.73-6.47-3.37,.38-4.7,3.79-3.27,6.66Z" style="fill:#e4897b;"></path><path d="M265.68,170.27c.58,1.08-1.26,5.05-5.43,6.96-4.18,1.91,.27-2.32,.27-2.32,0,0-8.39,2.88-8.62,1.8-.23-1.08,2.36-2.64,2.36-2.64,0,0-6.99,3.29-12.65,1.89-5.67-1.4,4.66-10.78,11.24-10.59,6.58,.19,11.09,1.63,12.83,4.9Z" style="fill:#263238;"></path><path d="M241.38,193.91c-.31-1.68-1.37-3.17-2.86-4.01-.58-.32-1.36-.53-1.82-.12l-.33-.38c.56-.49,1.46-.46,2.4,.06,1.61,.91,2.77,2.53,3.11,4.35l-.49,.09Z" style="fill:#263238; opacity:.1;"></path><path d="M257.15,198.48c-.7,.01-1.4-.11-2.02-.46-.77-.43-1.34-1.11-1.79-1.86-.25-.41-.9-.04-.65,.38,.51,.85,1.18,1.64,2.06,2.13,.73,.41,1.56,.58,2.39,.56,.48-.01,.48-.76,0-.75h0Z" style="fill:#263238;"></path></g><path d="M274.84,219.54c-6.7,3.06-10,16.42,2.76,45.84l18.99-12.6c-2.37-7.31-4.93-11.17-8.85-20.08-5.26-12.46-12.91-13.16-12.91-13.16Z" style="fill:#407BFF;"></path><g><path d="M271.15,218.71c-4.74-.34-23.69-2.45-42.99,1.45l1.87,68.36s-.96,25.15,0,27.43c20.27,8.29,45.57-3.78,58.39-12.05-.14,.33-3.53-8.72-3.53-8.72-2.36-21.79-6.14-55.77-9.72-75.38-.09-.48-3.55-1.06-4.02-1.09Z" style="fill:#407BFF;"></path><polygon points="230.29 261.69 231.35 261.83 234.93 242.68 236.47 264.19 230.03 264.68 230.29 261.69" style="isolation:isolate; opacity:.2;"></polygon></g><path d="M228.16,220.16s-7.6,1.41-9.43,10.93c-1.68,8.77-5.79,28.71-5.79,28.71l20.8,.43,1.44-21.22-7.02-18.85Z" style="fill:#407BFF;"></path></g><path d="M216.7,259.89l-.2,13.37c.43,5.15,2.9,8.89,7.63,8.91l45.83-2.65,2.04-8.37-38.73-3.4,.49-7.49-17.04-.35Z" style="fill:#e4897b;"></path><g><path d="M292.63,270.83c-1.34-1.13-9.03-4.32-12.02-4.96-2.98-.65-14.34,4.85-14.34,4.85l-.99,7.03s1.9,1.94,4.92,1.74c1.74-.11,5.75-2.41,5.75-2.41,0,0,.7,1.25,1.78,2.37,1.19,1.24,2.92,2.51,3.89,1.47,.96-1.03-1.84-4.65-2.25-5.17,.42,.52,3.39,4.13,4.85,2.92,1.41-1.16-1.76-4.85-1.76-4.85,0,0,1.65,1.55,2.5,2.34,.85,.79,2.38,.7,2.25-.97-.15-1.93-1.87-3.85-1.87-3.85,0,0,1.75,.39,5.1,1.71,2.41,.95,3.33-1.28,2.2-2.23Z" style="fill:#e4897b;"></path><path d="M279.8,276.53c-.07,0-.14-.03-.19-.08-.56-.64-1.14-1.29-1.82-1.82-.73-.57-1.51-.91-2.25-.98-.14-.01-.24-.14-.22-.27,.01-.14,.14-.24,.27-.22,.84,.08,1.68,.45,2.5,1.09,.71,.55,1.31,1.23,1.89,1.88,.09,.1,.08,.26-.02,.35-.05,.04-.11,.06-.17,.06Z" style="fill:#263238; opacity:.1;"></path><path d="M282.87,274.39c-.07,0-.14-.03-.19-.08h0c-.56-.64-1.15-1.3-1.82-1.82-.75-.58-1.5-.91-2.25-.98-.14-.01-.24-.14-.22-.27,.01-.14,.14-.24,.27-.22,.84,.08,1.68,.45,2.5,1.09,.71,.55,1.31,1.23,1.89,1.88,.09,.1,.08,.26-.02,.35-.05,.04-.11,.06-.17,.06Z" style="fill:#263238; opacity:.1;"></path><path d="M285.28,271.59c-.07,0-.14-.03-.19-.08-.56-.64-1.14-1.29-1.82-1.82-.73-.57-1.51-.91-2.25-.98-.14-.01-.24-.14-.22-.27,.01-.14,.15-.24,.27-.22,.84,.08,1.68,.45,2.5,1.09,.71,.55,1.31,1.23,1.89,1.88,.09,.1,.08,.26-.02,.35-.05,.04-.11,.06-.17,.06Z" style="fill:#263238; opacity:.1;"></path></g><g><g><g><path d="M325.41,282.26h-38.72c-.67,0-1.21-.44-1.2-.98,0-.1,.02-.2,.06-.3l17.22-39.49c.43-1.13,1.73-1.9,3.2-1.9h38.74c.66,0,1.19,.43,1.19,.95,0,.11-.02,.22-.07,.32l-17.22,39.49c-.44,1.12-1.73,1.89-3.2,1.9Z" style="fill:#263238;"></path><path d="M344.73,239.6h-38.74c-1.47,0-2.77,.78-3.2,1.9l-17.22,39.49c-.04,.1-.06,.2-.06,.3,0,.54,.53,.97,1.2,.98h38.72c1.47-.01,2.76-.78,3.2-1.9l17.22-39.49c.05-.1,.07-.21,.07-.32,0-.53-.53-.95-1.19-.95Z" style="fill:#fff; opacity:.7;"></path><path d="M320.73,261.81c-.84,1.9-2.53,3.2-3.8,2.93-1.26-.26-1.6-1.99-.79-3.89,.81-1.9,2.53-3.17,3.79-2.91,1.26,.26,1.64,1.92,.79,3.87Z" style="fill:#fff;"></path></g><path d="M306.21,239.6h-.23c-1.47,0-2.77,.78-3.2,1.9l-17.22,39.49c-.04,.1-.06,.2-.06,.3,0,.54,.53,.97,1.2,.98h1.24l18.28-42.67Z" style="opacity:.3;"></path></g><path d="M248.79,282.26h40.31v-2.72h-37.59c-1.5,0-2.72,1.22-2.72,2.72h0Z" style="fill:#263238;"></path><path d="M248.79,282.26h40.31v-2.72h-37.59c-1.5,0-2.72,1.22-2.72,2.72h0Z" style="fill:#fff; opacity:.7;"></path></g><path d="M278.75,240.73c-.43-.36,2.51,22.23,2.51,22.23l4-2.65s-6.07-19.22-6.5-19.58Z" style="isolation:isolate; opacity:.2;"></path></g><rect x="144.67" y="296.69" width="328.2" height="151.78" style="fill:#263238;"></rect><rect x="144.67" y="296.69" width="61.34" height="151.78" style="opacity:.4;"></rect><rect x="144.67" y="296.69" width="328.2" height="5.02" style="opacity:.3;"></rect><g><rect x="141.01" y="282.33" width="334.47" height="14.37" style="fill:#263238;"></rect><rect x="141.01" y="282.33" width="71.14" height="14.37" style="opacity:.4;"></rect></g><g><g><rect x="227.98" y="321.13" width="105.02" height="90.76" style="opacity:.3;"></rect><rect x="232.49" y="326.75" width="96" height="79.52" style="fill:#263238;"></rect></g><polygon points="227.98 411.89 232.49 406.27 328.49 406.27 333 411.89 227.98 411.89" style="fill:#fff; opacity:.3;"></polygon><polygon points="227.98 321.13 232.52 326.71 328.49 326.75 333 321.13 227.98 321.13" style="opacity:.3;"></polygon></g><g><g><rect x="351.61" y="321.13" width="105.02" height="90.76" style="opacity:.3;"></rect><rect x="356.12" y="326.75" width="96" height="79.52" style="fill:#263238;"></rect></g><polygon points="351.61 411.89 356.12 406.27 452.12 406.27 456.63 411.89 351.61 411.89" style="fill:#fff; opacity:.3;"></polygon><polygon points="351.61 321.13 356.15 326.71 452.12 326.75 456.63 321.13 351.61 321.13" style="opacity:.3;"></polygon></g></g></g></g></svg>
